<svg id="The_Real_Thing" data-name="The Real Thing" xmlns="http://www.w3.org/2000/svg" viewBox="0 0 1920 1080"><defs><style>.cls-1{fill:#fff;}.cls-2,.cls-3,.cls-5,.cls-7{fill:none;}.cls-2,.cls-3,.cls-4,.cls-5,.cls-7{stroke:#000;}.cls-2,.cls-3,.cls-4,.cls-5,.cls-6,.cls-7{stroke-miterlimit:10;}.cls-2{stroke-width:3px;}.cls-3{stroke-width:2px;}.cls-4{stroke-width:0.5px;}.cls-5{stroke-width:20px;}.cls-6{stroke:#fff;}</style></defs><title>bopi-notion-avatar</title><path class="cls-1" d="M1205.5,792.5c-1-16-4-63-4-63-3.34-11.34-8.35-19.57-14.14-25.5-20.23-20.76-49.86-13.5-49.86-13.5-11-26-39-27-39-27a226.3,226.3,0,0,0-25.41-2.44c-25.18-6-42.19-16.93-50.4-23.25,4.37-8.49,6.64-19.65,4.81-34.31-7-56-46-37-46-37a13.26,13.26,0,0,1-.28,1.43c-1.39-5.74-2.8-12.91-2.88-18.68h0a44.81,44.81,0,0,1,1.09-7.41,99.25,99.25,0,0,0,13-15.26l.18-.25c16-23.1,23-51.52,26.31-70-.24,3.25-.54,6.48-.94,9.68-1,4.77-1.91,9.55-2.76,14.15,15.6-4.16,20.26-33.65,20.26-33.65,4.44-31.73-2.39-41.31-8-44.08l.83.08c31.85-52,14.15-112,14.15-112,17.49-1,14.21,27.33,14,28.93,8.47-39.38-11.1-51.3-20.42-54.68C1061.48,235.15,1043,205,1043,205c2.79,30.64-4.61,39.46-9.36,42h0a8.9,8.9,0,0,1-2.52.9c-1.65-11.79-6.36-18.68-11.23-22.72q.06-.57.12-1.17c5-47-22-62-17-56s7,23,7,30c0,5-2.68,12.76-4.2,16.77a.11.11,0,0,1,0,0c-.6,1.57-1,2.55-1,2.55a159.38,159.38,0,0,0-17.3-18.1c-7-18.53-14.15-30.91-20.87-39.12A102.94,102.94,0,0,1,993,147a62.9,62.9,0,0,0-29.59,9.53C947,139.26,934,146,934,146c9.62,0,17.5,6.66,23.48,14.63a77.16,77.16,0,0,0-15,15.2c-44.49-8.27-78,26.67-78,26.67l-.85.08C818,207,807.38,226.37,805,237.16a27.11,27.11,0,0,0-.63,5.28c0,.73-.09,1.44-.11,2.11-81.73,18.17-42.18,148.9-42.18,148.9q-.79.49-1.62,1.05c-25,17,8.08,67.08,11,70,6,6,16,12,26,7,0,0,5.38,36,36.64,63.29,0,0,0,.11,0,.32L834,535l-1,18.87c-10.68,1.83-52,11.54-48.51,51.63a65,65,0,0,0,6.23,23.2L758,648s-4,.39-10.24,1.47a106.53,106.53,0,0,0-44.59,13.77l-.06,0c-7.43,3.78-14.18,8.45-19.12,14.19-5.2-.18-48.74-.93-65.15,26.53a38.21,38.21,0,0,0-2.34,4.5c-15,34-25,42-20,80,3.7,28.09-9.54,52.9-16.7,63.93a84.44,84.44,0,0,0-9.21,18.91c-5.19,15.33-11.43,40.48-2.09,53.16,0,0,85.5,38.5,139,1a10.77,10.77,0,0,0,1.15-.92c29.78,8,360.07,93.92,435.41-5.33,12.84,3.61,71,17.59,102.44-14.75C1273.05,877.2,1206.5,808.5,1205.5,792.5ZM960.58,165.09A107.35,107.35,0,0,1,971.05,187a88.5,88.5,0,0,0-19.68-9A35.88,35.88,0,0,1,960.58,165.09Z"/><path class="cls-1" d="M1183.31,704H621.79a1.6,1.6,0,0,1-1.32-2.51c16.82-24,55.4-24.21,62.79-24a1.58,1.58,0,0,0,1.22-.54c4.89-5.48,11.44-10,18.63-13.63l.06,0a106.48,106.48,0,0,1,44.53-13.76l.12,0c5.15-.89,8.76-1.31,9.84-1.42a1.63,1.63,0,0,0,.64-.22l31.17-18.38a1.6,1.6,0,0,0,.64-2.06,65.48,65.48,0,0,1-5.61-21.88c-3.37-38.68,35-49.08,47.27-51.41a1.6,1.6,0,0,0,1.31-1.49L834,535l.13.11c0-.21,0-.32,0-.32a116.15,116.15,0,0,1-36.28-61.35,1.61,1.61,0,0,0-2.16-1.16c-9.39,3.5-18.56-2.14-24.2-7.78-2.92-2.92-36-53-11-70l.63-.42a1.57,1.57,0,0,0,.66-1.76c-3.62-12.77-34.43-129.39,41.33-147.5a1.59,1.59,0,0,0,1.23-1.45l.06-.93a27.11,27.11,0,0,1,.63-5.28c2.34-10.79,13-30.14,58.61-34.58l.85-.08s33-34.43,77-26.84a1.58,1.58,0,0,0,1.54-.6,77.76,77.76,0,0,1,13.16-13.45,1.62,1.62,0,0,0,.26-2.27c-3.8-4.79-8.31-9-13.5-11.34a1.6,1.6,0,0,1,.86-3.06c5,.74,11.48,3.41,18.67,10.68a1.62,1.62,0,0,0,2,.25,66.11,66.11,0,0,1,13.06-6,1.61,1.61,0,0,1,1.22,3A90.11,90.11,0,0,0,968,159.17a1.59,1.59,0,0,0-.35,2.29c6.37,8.14,13.1,20.07,19.68,37.45a1.54,1.54,0,0,0,.43.61,156.55,156.55,0,0,1,15.29,15.79,1.6,1.6,0,0,0,2.72-.44l0-.05a.11.11,0,0,0,0,0c1.52-4,4.2-11.76,4.2-16.77,0-7-2-24-7-30s22,9,17,56l0,.35a1.57,1.57,0,0,0,.54,1.36c4.39,3.88,8.54,10.17,10.32,20.38a1.59,1.59,0,0,0,2.2,1.19c.19-.08.39-.18.6-.29,4.25-2.26,10.64-9.55,9.93-33.06a1.6,1.6,0,0,1,3.11-.55c3.59,10.71,6.46,30.2-9.2,49.71a1.58,1.58,0,0,0,.6,2.45c7.9,3.46,20.17,12.45,20.51,35a1.6,1.6,0,0,1-3.14.47c-1.56-5.33-4.67-9.89-10.69-10.5a1.6,1.6,0,0,0-1.71,2c2.71,10.88,13.71,63.61-14.69,110l-.83-.08c5.59,2.77,12.42,12.35,8,44.08,0,0-4.1,26-17.49,32.6a1.59,1.59,0,0,1-2.24-1.75c.7-3.7,1.46-7.5,2.22-11.29,0,0,0-.08,0-.13.39-3.17.69-6.38.93-9.61-3.27,18.48-10.26,46.9-26.31,70a100.09,100.09,0,0,1-12.85,15.18,1.58,1.58,0,0,0-.46.8,45.43,45.43,0,0,0-1,6.94h0c.08,5.77,1.49,12.94,2.88,18.68.06-.24.11-.46.14-.65a1.61,1.61,0,0,1,.95-1.14c5.62-2.34,38.79-13.86,45.19,37.36,1.75,14-.24,24.79-4.22,33.13a1.6,1.6,0,0,0,.47,2c8.55,6.39,25.13,16.67,49.18,22.4a1.64,1.64,0,0,0,.32.05,225.14,225.14,0,0,1,25.17,2.42h.14c1.43.07,15.44,3.5,38.42,25.82.53.51,1,1.06,1.75.92,5.48-1,28.14-4.12,45.62,10.93A1.61,1.61,0,0,1,1183.31,704Z"/><g id="V1"><g id="Features"><path class="cls-2" d="M948,367s-15,28-2,54,8,48-10,49"/><path d="M912,468a6.83,6.83,0,0,1,1.86-2.67,8,8,0,0,1,2.86-1.69,6.61,6.61,0,0,1,3.39-.23A5.31,5.31,0,0,1,923,465a18.88,18.88,0,0,0-3,0,11.45,11.45,0,0,0-2.66.56A41.8,41.8,0,0,0,912,468Z"/><path class="cls-3" d="M875.5,489.5s44,25,86,4"/><path d="M903.5,516.5a85.9,85.9,0,0,0,12.07,2c2,.17,4,.32,6,.37,1,0,2,0,3,0s2-.07,3-.11a80.74,80.74,0,0,0,12-1.41c2-.32,3.95-.86,5.94-1.31,1-.18,2-.54,3-.8s2-.56,3-.8c-.88.55-1.78,1.06-2.69,1.57a29.24,29.24,0,0,1-2.79,1.42,45,45,0,0,1-5.87,2.19,49.14,49.14,0,0,1-12.4,2.14,49.79,49.79,0,0,1-12.54-1A37.46,37.46,0,0,1,903.5,516.5Z"/><path d="M919.5,486.5a23.46,23.46,0,0,0,2.6,1.2,25.76,25.76,0,0,0,8.29,1.81,23.12,23.12,0,0,0,5.63-.39,29.88,29.88,0,0,0,5.48-1.62c-.85.44-1.69.93-2.59,1.29a20.64,20.64,0,0,1-2.76.89,18.86,18.86,0,0,1-5.8.58,19.92,19.92,0,0,1-5.72-1.1A18.14,18.14,0,0,1,919.5,486.5Z"/><path d="M817.84,355.5s36.57-25.6,95.61,2.08a2.89,2.89,0,0,1,1.63,3.45h0a7.84,7.84,0,0,1-9.39,5.07c-13.23-3.13-40.69-9.46-52-10.73C836.18,353.41,817.84,355.5,817.84,355.5Z"/><path d="M1025,364.27a72.8,72.8,0,0,0-20.83-2.61c-10.2.31-35.27,6.45-47.75,9.34a8.7,8.7,0,0,1-2,.23c-3.16,0-6.1-1.66-7.08-4.21a2.3,2.3,0,0,1,1.43-2.89c39-17.77,63.54-11.2,76-4.24Q1024.86,362.13,1025,364.27Z"/></g><g id="Eyes"><path d="M961.13,395.34a18.7,18.7,0,0,1,4.8-4.71,31.59,31.59,0,0,1,6-3.26,40.17,40.17,0,0,1,13.27-2.8,53.11,53.11,0,0,1,13.39,1.12c2.17.5,4.31,1.15,6.43,1.79,2.07.82,4.14,1.62,6.13,2.6-2.24-.12-4.4-.41-6.56-.68s-4.32-.38-6.46-.6a106.49,106.49,0,0,0-12.74-.23,61,61,0,0,0-12.46,1.77,45.53,45.53,0,0,0-6,2A30.62,30.62,0,0,0,961.13,395.34Z"/><path d="M833.41,389.65a49.79,49.79,0,0,1,15.09-7.4,54.36,54.36,0,0,1,16.84-2.49A46.32,46.32,0,0,1,882.12,383a41.21,41.21,0,0,1,14.07,9.27A73.67,73.67,0,0,0,881.11,386a61.53,61.53,0,0,0-15.82-2.24,79.68,79.68,0,0,0-16,1.5A110.3,110.3,0,0,0,833.41,389.65Z"/><path d="M993.14,395.78a11.4,11.4,0,1,1-21.5-5.29,10.29,10.29,0,0,1,.69-1.15,50.7,50.7,0,0,1,16.6-2.4,11.25,11.25,0,0,1,1,.87A11.4,11.4,0,0,1,993.14,395.78Z"/><path d="M864.29,381.41a12,12,0,0,1,1.71,1,11.49,11.49,0,1,1-13.88.66,10.71,10.71,0,0,1,1.6-1.13Z"/><path class="cls-4" d="M851.54,405.13a45.34,45.34,0,0,0,22.1.88"/><path d="M974.72,408.05s7,4.39,19.29,0Z"/><path class="cls-3" d="M829.87,384.35s50.41-23,71.63,5.3"/><path class="cls-3" d="M958.5,391.83s21.92-22.8,53.49-5.26"/><circle class="cls-1" cx="854.06" cy="388.94" r="3.46"/><circle class="cls-1" cx="974.06" cy="393.94" r="3.46"/><path d="M839.18,386.93a2.43,2.43,0,0,1-2.24-.42,7.72,7.72,0,0,1-1.71-1.56A12.47,12.47,0,0,1,833,381c1,1.14,1.86,2.35,2.8,3.47a14.77,14.77,0,0,0,1.49,1.57,5.21,5.21,0,0,0,.86.62A1.66,1.66,0,0,0,839.18,386.93Z"/><path d="M1005,387.93a1.68,1.68,0,0,0,1-.27,5.21,5.21,0,0,0,.86-.62,14.77,14.77,0,0,0,1.49-1.57c.94-1.12,1.79-2.33,2.8-3.47A12.87,12.87,0,0,1,1009,386a7.72,7.72,0,0,1-1.71,1.56A2.43,2.43,0,0,1,1005,387.93Z"/></g><g id="Hair"><path class="cls-5" d="M827.92,288.59S868,311.64,891.5,253.82"/><path d="M1056.51,319.43c.2-1.6,3.48-29.9-14-28.93,0,0,17.7,60-14.15,112l-.83-.08-4.85-.45-1.15-.11a2.74,2.74,0,0,1,.05-.28.31.31,0,0,0,0-.1h0c0-.09,0-.18,0-.27a235.06,235.06,0,0,0,2.78-37.08c0-1.45,0-2.93-.05-4.44-.07-3.93-.25-8-.56-12.25a2.46,2.46,0,0,0,0-.26,188.82,188.82,0,0,0-4.14-28.3,147.53,147.53,0,0,0-4.62-16.14h0a122.25,122.25,0,0,0-5.26-12.81,103.76,103.76,0,0,0-13-20.8c-.68-.83-1.37-1.65-2.08-2.46l-.14-.16s-13.88-5.92-35.11-9a169,169,0,0,0-29.25-1.68h0a152.15,152.15,0,0,0-33.2,4.59h0q-3.58.93-7.2,2.05c-.86.27-1.72.54-2.59.83A144.7,144.7,0,0,0,837.34,292q-1.94,1.68-3.84,3.46s-24-1-13,37c0,0-23,3-11,60L798,406a40.1,40.1,0,0,0-3.36-5.3c-4-5.44-11.55-12.95-21.59-11.78a23.86,23.86,0,0,0-10.9,4.51l0,0s-39.55-130.73,42.18-148.9l.2-.05a16.34,16.34,0,0,1-.09-2.06,27.11,27.11,0,0,1,.63-5.28c2.34-10.79,13-30.14,58.61-34.58l.85-.08s33.51-34.94,78-26.67a76,76,0,0,1,8.87,2.2,88.5,88.5,0,0,1,19.68,9,114.54,114.54,0,0,1,16.42,12.24,159.38,159.38,0,0,1,17.3,18.1l.16.2c.52.63,1.05,1.28,1.57,1.93a24.36,24.36,0,0,1,13.38,5.67c4.87,4,9.58,10.93,11.23,22.72.08.58.15,1.17.21,1.78a77.15,77.15,0,0,1,.18,13.83,25.41,25.41,0,0,1,4.59,1.25C1045.41,268.13,1065,280.05,1056.51,319.43Z"/><path d="M892.51,252s-23.08,69.48,17.16,99c0,0-30.77-66.41,17.75-89.78,0,0-15.39,73.79-76.92,65.18,0,0,46.15,29.52,101.77-59,0,0-21.3,70.1-71,82.4,0,0,24.85,8.61,71-25.83s42.6-62.72,42.6-62.72,21.3,67.64-42.6,77.48c0,0,18.93,6.15,46.15-14.76s16.22-42.55,16.22-42.55L1028,292S1000.78,199.73,892.51,252Z"/><path d="M993,147a102.94,102.94,0,0,0-26.4,13.15,59.18,59.18,0,0,0-6,4.94L951.37,178a25.38,25.38,0,0,0-1.37,5c-4,24-9-5-9-5s.5-.81,1.5-2.17a77.16,77.16,0,0,1,15-15.2c1.83-1.4,3.8-2.78,5.93-4.1A62.9,62.9,0,0,1,993,147Z"/><path d="M971.17,187.39l-.12-.36a107.35,107.35,0,0,0-10.47-21.94c-1-1.51-2-3-3.1-4.46-6-8-13.86-14.63-23.48-14.63,0,0,13-6.74,29.41,10.53q1.58,1.65,3.19,3.62c6.72,8.21,13.88,20.59,20.87,39.12C1013,267,971.17,187.39,971.17,187.39Z"/><path d="M1020,224q-.06.6-.12,1.17c-4.79,42.56-14.06-2.51-15-7.38l-.08-.42s.42-1,1-2.55a.11.11,0,0,0,0,0c1.52-4,4.2-11.76,4.2-16.77,0-7-2-24-7-30S1025,177,1020,224Z"/><path d="M1036.09,264.75c-.35.42-.72.83-1.09,1.25-21,23.31-12.37-.48-7.49-12.24h0c1.4-3.37,2.49-5.75,2.49-5.75a5.29,5.29,0,0,0,1.11-.11,8.9,8.9,0,0,0,2.52-.9h0c4.75-2.53,12.15-11.35,9.36-42C1043,205,1061.48,235.15,1036.09,264.75Z"/><path class="cls-1" d="M1006.14,208a9.93,9.93,0,0,1,.36,3.39,20.54,20.54,0,0,1-.45,3.41v-.06a.94.94,0,0,1,0,.16l0-.05-.81,2.8v0a40.25,40.25,0,0,1-4.71,9.27,65.47,65.47,0,0,1-6.37,8.18,91.8,91.8,0,0,1-7.33,7.3c-2.58,2.28-5.29,4.41-8,6.56,2.48-2.39,5-4.68,7.52-7s4.83-4.87,7.08-7.44c1.13-1.29,2.22-2.6,3.27-4s2.07-2.71,3-4.12a48.3,48.3,0,0,0,2.66-4.36,36.19,36.19,0,0,0,2.19-4.58v0l.91-2.7,0,0a.11.11,0,0,0,0,.06v-.06c.15-.54.29-1.09.4-1.64s.21-1.11.27-1.67a15.76,15.76,0,0,0,.09-1.68A7.94,7.94,0,0,0,1006.14,208Z"/><path class="cls-1" d="M966.5,237.5a1.13,1.13,0,0,1,.91.79c0,.1.08.2.11.3l.05.31a2.69,2.69,0,0,1,.06.63,13.14,13.14,0,0,1-.3,2.5,35.51,35.51,0,0,1-1.65,4.71,80.81,80.81,0,0,1-4.54,8.83c-1.7,2.83-3.45,5.64-5.34,8.34s-3.83,5.38-5.83,8c.83-1.42,1.71-2.81,2.57-4.22s1.76-2.79,2.61-4.2c1.74-2.79,3.46-5.6,5.12-8.43.81-1.43,1.69-2.82,2.44-4.28l1.18-2.16,1.09-2.2a36.22,36.22,0,0,0,1.88-4.52,12.07,12.07,0,0,0,.51-2.37,3,3,0,0,0,0-.6v-.3l-.08-.29A1.07,1.07,0,0,0,966.5,237.5Z"/><path class="cls-1" d="M954.74,235.45a14.83,14.83,0,0,0-6,1.93l-1.38.78c-.45.26-.87.59-1.31.88a25.55,25.55,0,0,0-2.51,1.91,59.63,59.63,0,0,0-8.68,9.14c-.67.82-1.27,1.69-1.91,2.53s-1.29,1.68-1.85,2.58c-1.14,1.78-2.35,3.51-3.44,5.33s-2.23,3.61-3.24,5.47-2.06,3.71-3.13,5.55c.87-1.94,1.8-3.85,2.69-5.78s2-3.75,3-5.63c.49-.95,1.06-1.85,1.64-2.75l1.71-2.7c.55-.92,1.22-1.75,1.83-2.63s1.22-1.75,1.89-2.59a55.86,55.86,0,0,1,9-9.12,25.41,25.41,0,0,1,2.64-1.84c.46-.28.89-.59,1.37-.83l1.44-.73a19.14,19.14,0,0,1,3-1.1A9.46,9.46,0,0,1,954.74,235.45Z"/><path class="cls-1" d="M915.17,243.38a14.87,14.87,0,0,0-5.65,2.71l-1.26,1c-.42.31-.79.7-1.18,1a24.7,24.7,0,0,0-2.23,2.23,60,60,0,0,0-7.39,10.22c-.55.9-1,1.85-1.55,2.77s-1,1.83-1.49,2.79c-.89,1.92-1.86,3.8-2.7,5.75s-1.72,3.87-2.48,5.85-1.54,4-2.36,5.92c.6-2,1.27-4.06,1.9-6.09s1.49-4,2.23-6c.36-1,.81-2,1.26-2.94l1.34-2.91c.42-1,1-1.9,1.46-2.85s1-1.9,1.53-2.81a55.69,55.69,0,0,1,7.69-10.25,25.84,25.84,0,0,1,2.38-2.18c.42-.33.81-.7,1.25-1l1.32-.92a19.82,19.82,0,0,1,2.85-1.49A9.5,9.5,0,0,1,915.17,243.38Z"/><path class="cls-1" d="M862.17,220.26a10.14,10.14,0,0,1-1.37-4.37,19.21,19.21,0,0,1,.08-4.61,26.18,26.18,0,0,1,1-4.48c.24-.73.51-1.44.78-2.15s.63-1.4,1-2.07l-1,4.42c-.28,1.47-.6,2.93-.76,4.4a30.13,30.13,0,0,0-.31,4.44c0,.74,0,1.48.14,2.22A9.79,9.79,0,0,0,862.17,220.26Z"/><path class="cls-1" d="M805,237.16c0,2-.18,3.94-.27,5.89a56.61,56.61,0,0,0,.12,5.83,32.6,32.6,0,0,0,.86,5.74A16,16,0,0,0,808,260a12.17,12.17,0,0,1-3-5.13,24.23,24.23,0,0,1-1.11-5.88,34.87,34.87,0,0,1,.1-6C804.21,241,804.63,239.09,805,237.16Z"/><path class="cls-1" d="M1016.5,264.5c.86-1,1.74-1.89,2.61-2.83s1.78-1.85,2.66-2.78q2.67-2.76,5.39-5.46l-.13.33h0v-.19l.13-.14,3.1-3.34c1.06-1.08,2-2.27,3-3.38l.16-.18h.21l-.36.16c.72-.87,1.47-1.73,2.16-2.63s1.39-1.79,2-2.73a16.63,16.63,0,0,0,1.6-3,3.77,3.77,0,0,0,.29-1.61,1.22,1.22,0,0,0-1-1.17,1.31,1.31,0,0,1,1.18,1.14,4,4,0,0,1-.14,1.75,13.93,13.93,0,0,1-1.43,3.17c-.58,1-1.21,2-1.88,2.9s-1.4,1.82-2.09,2.74l-.13.16h-.24l.36-.17c-1,1.17-2,2.36-3,3.47l-3.13,3.33.13-.33h0V254l-.13.12q-2.79,2.67-5.62,5.28c-1,.86-1.88,1.75-2.85,2.59S1017.48,263.67,1016.5,264.5Z"/><path class="cls-1" d="M970.14,188a36,36,0,0,1-2.19,7.22c-.44,1.18-1,2.3-1.54,3.45s-1.15,2.25-1.73,3.37a91.39,91.39,0,0,1-8.5,12.5c-.8,1-1.59,2-2.41,2.91l-2.54,2.81L950,221.68,948.63,223c-.88.9-1.77,1.78-2.67,2.67-1.83,1.72-3.72,3.38-5.58,5.07s-3.9,3.18-5.88,4.73c1.83-1.72,3.7-3.39,5.55-5.09s3.61-3.48,5.37-5.26a141,141,0,0,0,10-11.2A100.06,100.06,0,0,0,964,201.69c.62-1.09,1.25-2.17,1.84-3.27s1.16-2.22,1.65-3.37A39.55,39.55,0,0,0,970.14,188Z"/><path d="M808.5,397.5a53.21,53.21,0,0,1-5.15,5.85,52.18,52.18,0,0,1-5.85,5.15,52.18,52.18,0,0,1,5.15-5.85A53.21,53.21,0,0,1,808.5,397.5Z"/><path d="M808.5,400.5a66.17,66.17,0,0,1-11,12,58.23,58.23,0,0,1,5.13-6.34A59.24,59.24,0,0,1,808.5,400.5Z"/><path d="M806.5,408.5a18.43,18.43,0,0,1-6,6,18.43,18.43,0,0,1,6-6Z"/></g><g id="Sweater"><path d="M1168,875l-23,43c-.3.42-.61.84-.94,1.25-75.34,99.25-405.63,13.32-435.41,5.33L706.5,924l1.5-2c-28.07-38.87-41-163.87-33.67-218,1.27-9.42,3.15-16.7,5.67-21a36.73,36.73,0,0,1,4-5.53c4.94-5.74,11.69-10.41,19.12-14.19l.06,0c15.32-7.81,33.49-11.87,44.59-13.77C754,648.39,758,648,758,648l32.73-19.3,2.13-1.26L797,625c45.5,53.5,220,8,220,8a63.05,63.05,0,0,0,5.69,4.81c8.21,6.32,25.22,17.28,50.4,23.25,3.32.8,19.36.1,22.91.94,42,10,40,31,40,31l1.38,7.84.55,3.16Z"/><path class="cls-6" d="M1022.69,637.81c-9,17.51-26.83,23.68-35.79,25.74a69.11,69.11,0,0,0-11,3.57c-50.35,20.73-145.38-6.62-145.38-6.62s-22.63-4.85-36.25-25.62h0a58.72,58.72,0,0,1-3.51-6.17,65,65,0,0,1-6.23-23.2C781,565.41,822.33,555.7,833,553.87l.2,0c1.46-.25,2.29-.34,2.29-.34a13.12,13.12,0,0,0-.82,2.1c-1.65,5.33-3.4,19.73,20.3,30.42a86.79,86.79,0,0,0,8.38,3.24c9.09,3,20.89,5.57,36.14,7.24,38.47,4.23,52.41,2.51,66.36-7.4l.14-.1c10-7.14,13.62-15.58,14.87-19.81.15-.48.26-.9.35-1.26a13.26,13.26,0,0,0,.28-1.43s39-19,46,37C1029.33,618.16,1027.06,629.32,1022.69,637.81Z"/><path d="M789.38,652.5a13.71,13.71,0,0,0,5.85-15.68Z"/><path d="M1014,650.6a9.59,9.59,0,0,0,3.42,11.08Z"/><path class="cls-6" d="M1246.5,904.5c-31.45,32.34-89.6,18.36-102.44,14.75-1.66-.46-2.56-.75-2.56-.75s26-52,11-88a94.37,94.37,0,0,1-3.57-10.54q-1-3.51-1.88-7.4c-.9-3.91-1.74-8.07-2.51-12.4-.6-3.41-1.17-6.93-1.7-10.51-.4-2.7-.78-5.44-1.13-8.2-.48-3.72-.93-7.48-1.34-11.25-.31-2.84-.6-5.68-.87-8.5h0c-.33-3.45-.64-6.87-.92-10.24-.32-3.76-.6-7.45-.85-11-.21-2.87-.39-5.67-.56-8.39-.23-3.56-.42-7-.59-10.18-.2-3.86-.37-7.44-.51-10.64-.12-2.68-.21-5.09-.29-7.2,0-1.53-.1-2.89-.13-4.07-.11-3.47-.15-5.43-.15-5.43,3.49-3.55-9.11-29-35-32-41.69-4.91-54,4-54,4s2.45-6.14,26.59-5.44a226.3,226.3,0,0,1,25.41,2.44s28,1,39,27c0,0,29.63-7.26,49.86,13.5,5.79,5.93,10.8,14.16,14.14,25.5,0,0,3,47,4,63S1273.05,877.2,1246.5,904.5Z"/><path class="cls-6" d="M692.09,871.64c3.36,20.57,27.76,42.74,16.56,52.94a10.77,10.77,0,0,1-1.15.92c-53.5,37.5-139-1-139-1-9.34-12.68-3.1-37.83,2.09-53.16a84.44,84.44,0,0,1,9.21-18.91c7.16-11,20.4-35.84,16.7-63.93-5-38,5-46,20-80a38.21,38.21,0,0,1,2.34-4.5c16.41-27.46,59.95-26.71,65.15-26.53l.51,0s6.32-7.11,18.61-14.22l.06,0a106.53,106.53,0,0,1,44.59-13.77,122.83,122.83,0,0,1,28.74,1s-38-2-56,4c-21.9,7.3-38,27-38,27s2.5,4,6,11c1.61,3.22,3.42,7.08,5.28,11.46.24.55.47,1.1.71,1.67,1.6,3.83,3.23,8,4.79,12.55,1.45,4.17,2.84,8.6,4.11,13.24,1.16,4.24,2.21,8.65,3.1,13.21.79,4,1.45,8.06,1.95,12.22.44,3.59.75,7.25.93,11a136.36,136.36,0,0,1,0,13.71,120.27,120.27,0,0,1-1.41,13.12c-.59,3.58-1.35,7.16-2.31,10.74-.76,2.87-1.65,5.74-2.67,8.59-.32.9-.64,1.79-.94,2.69-1.39,4-2.67,8.09-3.81,12.19-1,3.64-1.94,7.32-2.75,11q-1.36,6.25-2.29,12.61-.66,4.51-1.06,9.07c-.13,1.37-.23,2.75-.32,4.13A26.47,26.47,0,0,0,692.09,871.64Z"/><path class="cls-1" d="M683.67,695.62a10.57,10.57,0,0,0,12.56-7.44c1-3.74-4.8-5.33-5.79-1.6a4.45,4.45,0,0,1-5.17,3.25c-3.76-.87-5.36,4.92-1.6,5.79Z"/><path class="cls-1" d="M690.55,708.69A9.55,9.55,0,0,0,701.76,702c1-3.73-4.75-5.32-5.78-1.59a3.45,3.45,0,0,1-3.83,2.49,3.07,3.07,0,0,0-3.69,2.09,3,3,0,0,0,2.09,3.7Z"/><path class="cls-1" d="M692.87,721.65a11.25,11.25,0,0,0,12.47-5.16c2-3.33-3.21-6.35-5.18-3a5.12,5.12,0,0,1-5.7,2.4c-3.74-1-5.34,4.84-1.59,5.79Z"/><path class="cls-1" d="M698.12,734.2c5.25,1.93,10.84-1.19,12.8-6.18a3,3,0,0,0-2.09-3.69,3.07,3.07,0,0,0-3.69,2.09c-.84,2.13-3.5,2.71-5.43,2-3.63-1.34-5.19,4.46-1.59,5.78Z"/><path class="cls-1" d="M701.27,747c4.86,2,10.51-.16,13.28-4.48,2.09-3.26-3.1-6.27-5.18-3a5.15,5.15,0,0,1-6.51,1.73c-1.51-.63-3.28.67-3.69,2.09a3.08,3.08,0,0,0,2.1,3.69Z"/><path class="cls-1" d="M701.11,756.29a8.91,8.91,0,0,0,15.41-2.15c1.35-3.62-4.45-5.19-5.79-1.59-.53,1.42-3.5,2-4.43.71a3.11,3.11,0,0,0-4.11-1.07c-1.28.73-2.05,2.81-1.08,4.1Z"/><path class="cls-1" d="M703.65,768.87a14.63,14.63,0,0,0,12.29,1.29c3.63-1.26,2.07-7.06-1.59-5.79a8.78,8.78,0,0,1-7.67-.68c-3.34-2-6.36,3.23-3,5.18Z"/><path class="cls-1" d="M702.29,780.68a11.58,11.58,0,0,0,15.14,2.13c3.17-2.16.18-7.37-3-5.18a5.69,5.69,0,0,1-7.87-1.2c-2.44-3-6.67,1.28-4.25,4.25Z"/><path class="cls-1" d="M701,793.16c2.73,5.11,9.88,6,14,2.19,2.84-2.62-1.41-6.86-4.24-4.24a3.08,3.08,0,0,1-4.62-1c-1.81-3.41-7-.38-5.18,3Z"/><path class="cls-1" d="M699.08,800.81A9.1,9.1,0,0,0,712,808a3,3,0,0,0,1.08-4.11,3.08,3.08,0,0,0-4.11-1.07c-1.26.6-3.71-.52-3.9-2a3.1,3.1,0,0,0-3-3c-1.47,0-3.21,1.38-3,3Z"/><path class="cls-1" d="M696,813.11a9.73,9.73,0,0,0,9.88,7.54,3.07,3.07,0,0,0,3-3,3,3,0,0,0-3-3,3.8,3.8,0,0,1-4.09-3.13,3,3,0,0,0-3.69-2.1,3.07,3.07,0,0,0-2.1,3.69Z"/><path class="cls-1" d="M692.24,826.13c1.81,5.57,8.79,8.41,13.84,5.12,3.22-2.1.22-7.29-3-5.18-1.68,1.09-4.36.51-5-1.54-1.19-3.65-7-2.09-5.79,1.6Z"/><path class="cls-1" d="M691,840.27A9.42,9.42,0,0,0,703,842c3.24-2.09.23-7.29-3-5.19a3.48,3.48,0,0,1-4.74-.74c-2.52-2.93-6.75,1.33-4.24,4.24Z"/><path class="cls-1" d="M687.58,849.88c1.57,5.59,9,8.59,13.8,5a3.08,3.08,0,0,0,1.07-4.1c-.74-1.27-2.8-2.06-4.1-1.08-1.65,1.25-4.36.84-5-1.36-1-3.71-6.83-2.14-5.79,1.59Z"/><path class="cls-1" d="M688.65,862.13a8.91,8.91,0,0,0,13.33,1.4c2.82-2.65-1.43-6.88-4.24-4.24a2.82,2.82,0,0,1-3.9-.19,3.1,3.1,0,0,0-4.11-1.07,3,3,0,0,0-1.08,4.1Z"/><path class="cls-1" d="M690.52,874.23a11.46,11.46,0,0,0,12.1-2.4c2.84-2.63-1.41-6.86-4.24-4.24a5.64,5.64,0,0,1-6.27.85c-1.5-.62-3.3.68-3.69,2.1a3.07,3.07,0,0,0,2.1,3.69Z"/><path class="cls-1" d="M694.39,884.08a9.37,9.37,0,0,0,10.18-4.44c1.92-3.36-3.26-6.38-5.18-3a3.24,3.24,0,0,1-3.41,1.68,3.08,3.08,0,0,0-3.69,2.1,3,3,0,0,0,2.1,3.69Z"/><path class="cls-1" d="M1130.14,698.06a11.76,11.76,0,0,0,10,6.35c3.86.19,3.85-5.81,0-6a5.73,5.73,0,0,1-4.87-3.38c-1.72-3.45-6.9-.42-5.18,3Z"/><path class="cls-1" d="M1129.62,712a29.41,29.41,0,0,0,8.16,2.64,3.1,3.1,0,0,0,3.69-2.1c.4-1.43-.48-3.43-2.09-3.69a24,24,0,0,1-6.73-2,3.07,3.07,0,0,0-4.1,1.08,3,3,0,0,0,1.07,4.1Z"/><path class="cls-1" d="M1131.47,722.28a7.62,7.62,0,0,0,9.54,1.57c3.34-1.93.32-7.12-3-5.18-.32.16-.37.2-.13.1a5.26,5.26,0,0,1-.6.15c.64-.08-.89-.16-.27,0a4.56,4.56,0,0,1-.6-.18c.24.1.2.07-.12-.1.27.19-.44-.44-.55-.57a3,3,0,0,0-4.24,0,3.08,3.08,0,0,0,0,4.24Z"/><path class="cls-1" d="M1130.77,730.28a15.73,15.73,0,0,0,7.08,5.3,3,3,0,0,0,3.69-2.1,3.07,3.07,0,0,0-2.1-3.69,10,10,0,0,1-2.07-1.18c-.43-.32.22.21-.18-.15-.17-.14-.34-.29-.5-.45s-.31-.31-.46-.47-.45-.51-.28-.29a3.11,3.11,0,0,0-4.11-1.08c-1.26.74-2.07,2.82-1.07,4.11Z"/><path class="cls-1" d="M1132,738.78a7,7,0,0,0,9.65,4,3,3,0,0,0,1.08-4.1,3.08,3.08,0,0,0-4.11-1.08c.45-.2,0,0,0,0,0-.2.5.18,0,0-.24-.1-.31,0,0,0-.07,0-.75-.23-.4-.09s-.18-.11-.24-.14c-.38-.23.31.28,0,0,0,0-.45-.39-.2-.19s-.18-.47,0,.09a3.09,3.09,0,0,0-3.7-2.1,3,3,0,0,0-2.09,3.69Z"/><path class="cls-1" d="M1132.34,750.17a11.1,11.1,0,0,0,7,4.6,3.09,3.09,0,0,0,3.69-2.1A3,3,0,0,0,1141,749a10.46,10.46,0,0,1-1.23-.29c-.1,0-.46-.16-.17,0a5.77,5.77,0,0,1-.7-.36,6.06,6.06,0,0,1-.53-.35c-.41-.29.23.23-.14-.11l-.46-.44s-.44-.54-.23-.25a3.09,3.09,0,0,0-4.1-1.08,3,3,0,0,0-1.08,4.11Z"/><path class="cls-1" d="M1135,762.38a7.93,7.93,0,0,0,7.56,2.21,3,3,0,0,0,2.09-3.69,3.06,3.06,0,0,0-3.69-2.09c-.35.07-.35.07,0,0h-.54c.66,0-.22-.08-.39-.1s-.17-.05.09.06a4.23,4.23,0,0,1-.47-.25c-.28-.2-.3-.2,0,0a4.54,4.54,0,0,1-.38-.38,3,3,0,0,0-4.24,4.24Z"/><path class="cls-1" d="M1136.36,772a12.89,12.89,0,0,0,7.69,1,3,3,0,0,0,2.09-3.69,3.06,3.06,0,0,0-3.69-2.09,6.22,6.22,0,0,1-3.06-.4,3.08,3.08,0,0,0-4.1,1.07c-.75,1.29-.41,3.44,1.07,4.11Z"/><path class="cls-1" d="M1138.85,790.66a7.35,7.35,0,0,0,8.89,1.1c3.31-2,.3-7.16-3-5.18-.31.17-.33.19,0,.08a3.47,3.47,0,0,1-.55.16c.74-.17-.63-.05-.22,0s-.9-.32-.26,0a3.43,3.43,0,0,1-.49-.28c.23.18.21.15,0-.08-2.75-2.72-7,1.52-4.25,4.24Z"/><path class="cls-1" d="M1138.49,799.21a7.18,7.18,0,0,0,8.58,3.62,3.07,3.07,0,0,0,2.1-3.69,3,3,0,0,0-3.69-2.1l-.52.16c.53-.14,0,0-.14,0-.47,0,.47,0,0,0-.12,0-.71-.23-.19,0-.16-.07-.31-.17-.47-.26s-.28-.1,0,0l-.19-.19c.15.23.17.25.06.08s-.22-.39-.32-.6c-.66-1.48-2.81-1.83-4.1-1.08a3.08,3.08,0,0,0-1.08,4.11Z"/><path class="cls-1" d="M1142.59,814a10.23,10.23,0,0,0,7.63,1.36,3,3,0,0,0,2.09-3.69,3.06,3.06,0,0,0-3.69-2.1,5,5,0,0,1-1.34,0,3.76,3.76,0,0,1-1.66-.74,3,3,0,1,0-3,5.19Z"/><path class="cls-1" d="M1147.85,823h4.6a3,3,0,0,0,0-6h-4.6a3,3,0,0,0,0,6Z"/><path class="cls-1" d="M1136,780.16a8.53,8.53,0,0,0,9.61,4.31c3.76-.89,2.17-6.68-1.59-5.78a2.48,2.48,0,0,1-2.84-1.55,3,3,0,1,0-5.18,3Z"/><path class="cls-1" d="M1154.74,831.38h.77a3,3,0,0,0,0-6h-.77a3,3,0,0,0,0,6Z"/><path class="cls-1" d="M1154.81,839.11v.76a3,3,0,0,0,6,0v-.76a3,3,0,0,0-6,0Z"/><path class="cls-1" d="M820.85,832.82a40.05,40.05,0,0,1,2,30.42c-.61,1.84,2.29,2.62,2.89.79a43.11,43.11,0,0,0-2.34-32.73c-.85-1.73-3.44-.21-2.59,1.52Z"/><path class="cls-1" d="M823.26,832.9a59.13,59.13,0,0,1,23.24,30.42c.61,1.82,3.51,1,2.89-.8a62.48,62.48,0,0,0-24.61-32.21c-1.61-1.08-3.11,1.52-1.52,2.59Z"/><path class="cls-1" d="M844.88,827.6c5.13,9.67,7.6,25.16,2.57,35.22-.86,1.73,1.73,3.25,2.59,1.52,5.56-11.12,3.1-27.56-2.57-38.25-.91-1.71-3.5-.19-2.59,1.51Z"/><path class="cls-1" d="M819.86,865.77a25.58,25.58,0,0,0,8.91,1.12c1.92-.09,1.93-3.09,0-3a23,23,0,0,1-8.12-1c-1.84-.57-2.64,2.33-.79,2.9Z"/><path class="cls-1" d="M843.41,828a19,19,0,0,0,7.2-.69c1.85-.54,1.07-3.44-.79-2.89a16.93,16.93,0,0,1-6.41.58c-1.92-.18-1.91,2.82,0,3Z"/><path class="cls-1" d="M842.73,827.5l-1-.37a1.51,1.51,0,0,0-1.85,1,1.55,1.55,0,0,0,1,1.85l1,.36a1.51,1.51,0,0,0,1.85-1,1.54,1.54,0,0,0-1-1.84Z"/><path class="cls-1" d="M830.83,557.72c-15.08-.24-28,10-34.61,23-8.48,16.76-6.28,36.6-2.69,54.34.19.95,1.63.55,1.44-.4-3.41-16.86-5.64-35.74,1.91-51.88,6.18-13.21,18.85-23.84,34-23.6a.75.75,0,0,0,0-1.5Z"/><path class="cls-1" d="M832.52,562.7A24.86,24.86,0,0,0,810,569.88c-.68.69.38,1.75,1.06,1.06a23.26,23.26,0,0,1,21.1-6.79c.94.17,1.35-1.28.4-1.45Z"/><path class="cls-1" d="M833.08,565.32a28.69,28.69,0,0,0-15.24,8.38c-.67.7.39,1.76,1.06,1.06a27.29,27.29,0,0,1,14.57-8c.95-.19.55-1.64-.39-1.45Z"/><path class="cls-1" d="M836.36,572A16.5,16.5,0,0,0,823,580.13a.75.75,0,0,0,1.29.76,15,15,0,0,1,12.05-7.43c1-.06,1-1.56,0-1.5Z"/><path class="cls-1" d="M840.23,576.11a14.59,14.59,0,0,0-8.68,8.75c-.34.91,1.11,1.3,1.44.4a13,13,0,0,1,7.64-7.7c.89-.33.5-1.79-.4-1.45Z"/><path class="cls-1" d="M846.59,582a11.39,11.39,0,0,0-3.85,9.17c0,1,1.55,1,1.5,0a9.93,9.93,0,0,1,3.41-8.1c.73-.65-.34-1.7-1.06-1.07Z"/><path class="cls-1" d="M854.55,585.17a15.66,15.66,0,0,0-1.54,8.57c.1,1,1.6,1,1.5,0a14.25,14.25,0,0,1,1.34-7.82c.41-.86-.88-1.62-1.3-.75Z"/><path class="cls-1" d="M862.69,588.94a15.25,15.25,0,0,0-1,6.34c0,1,1.54,1,1.5,0a14,14,0,0,1,1-5.94c.35-.9-1.1-1.29-1.45-.4Z"/><path class="cls-1" d="M973.46,588.42a9.61,9.61,0,0,1,9.85-1.29c.89.37,1.28-1.08.4-1.45a11.11,11.11,0,0,0-11.31,1.68c-.75.6.32,1.65,1.06,1.06Z"/><path class="cls-1" d="M976.77,582a11.1,11.1,0,0,1,11.55-2.81c.92.3,1.32-1.15.4-1.45a12.65,12.65,0,0,0-13,3.2.75.75,0,0,0,1.06,1.06Z"/><path class="cls-1" d="M981.83,572.74a10.43,10.43,0,0,1,9.08-2.92c1,.15,1.35-1.3.4-1.45a12.08,12.08,0,0,0-10.55,3.31c-.69.68.37,1.74,1.07,1.06Z"/><path class="cls-1" d="M768.73,289.15a27.82,27.82,0,0,1,13.15-21.95c.82-.5.06-1.8-.76-1.29a29.37,29.37,0,0,0-13.89,23.24c-.06,1,1.44,1,1.5,0Z"/><path class="cls-1" d="M776.41,285.54a21.43,21.43,0,0,1,6.35-11.46c.7-.67-.36-1.73-1.06-1.07A22.91,22.91,0,0,0,775,285.14c-.19.94,1.25,1.34,1.45.4Z"/><path class="cls-1" d="M784.64,284.92l2.56-5.24c.42-.86-.88-1.62-1.3-.76l-2.56,5.24c-.42.86.88,1.63,1.3.76Z"/><path class="cls-1" d="M815.7,233.78A33.25,33.25,0,0,1,838.64,215c.94-.22.54-1.67-.4-1.45A34.61,34.61,0,0,0,814.41,233c-.4.88.89,1.64,1.29.76Z"/><path class="cls-1" d="M823.62,229.94a24.43,24.43,0,0,1,10.43-7.35c.9-.33.51-1.78-.4-1.44a25.75,25.75,0,0,0-11.09,7.73c-.62.73.44,1.8,1.06,1.06Z"/><path class="cls-1" d="M828.13,232.91l6.13-6.12c.69-.68-.37-1.74-1.06-1.06l-6.13,6.12a.75.75,0,0,0,1.06,1.06Z"/><path class="cls-1" d="M883.69,195.73A39.8,39.8,0,0,1,913.47,181c1,0,1-1.53,0-1.5a41.24,41.24,0,0,0-30.84,15.14c-.61.74.45,1.8,1.06,1.06Z"/><path class="cls-1" d="M894.78,192.34a24.93,24.93,0,0,1,15.61-8.27c1-.12,1-1.62,0-1.5a26.46,26.46,0,0,0-16.67,8.71c-.64.72.41,1.78,1.06,1.06Z"/><path class="cls-1" d="M903,193.41l6.82-2.49c.9-.33.52-1.78-.39-1.45l-6.83,2.5c-.9.32-.51,1.78.4,1.44Z"/></g><g id="Face_Contour" data-name="Face Contour"><path d="M764.47,427.57s10,17.93,20,13.93,9,2,9,2,.77,6-9.5,6.5c-4.34.23-9.64-3.48-13-8A39.7,39.7,0,0,1,764.47,427.57Z"/><path d="M1012.84,481.46a134.2,134.2,0,0,1-36.17,61.35c-1,1,.55,2.6,1.6,1.6A136.38,136.38,0,0,0,1015,482.06a1.12,1.12,0,0,0-2.16-.6Z"/><g id="Face_Contour-2" data-name="Face Contour"><path d="M999.52,281.35a10.39,10.39,0,0,1,4.31,1.66,16.82,16.82,0,0,1,3.43,3.09,36.37,36.37,0,0,1,4.89,7.78,96.75,96.75,0,0,1,6,17.34c1.53,5.93,2.72,11.94,3.71,18s1.75,12.07,2.34,18.24v0c.35,4.53.74,9.05,1,13.59s.39,9.08.39,13.62a129.88,129.88,0,0,1-.62,13.65c-.13,1.14-.29,2.27-.5,3.41s-.56,2.27-.85,3.34c-.59,2.18-1.07,4.35-1.49,6.6l0,.06a1.51,1.51,0,0,1,0,.26v0a100.56,100.56,0,0,0-1.47,12.46,79,79,0,0,0,.25,12.5V427a.45.45,0,0,0-.07-.25l.08.32V427a96.51,96.51,0,0,1-.11,22.47c-1,7.44-2.47,14.76-4.18,22.05-3.49,14.53-8.29,28.83-15.25,42.14-.91,1.65-1.76,3.32-2.72,4.93s-1.88,3.25-2.93,4.82-2.05,3.18-3.14,4.68-2.21,3-3.38,4.51a96.7,96.7,0,0,1-7.49,8.44c-1.31,1.36-2.76,2.58-4.17,3.82s-2.8,2.53-4.31,3.67a80.88,80.88,0,0,1-19.62,11.21,86.46,86.46,0,0,1-21.92,5.48,99.15,99.15,0,0,1-11.29.68l-5.65-.13c-1.88,0-3.75-.21-5.62-.32a164.38,164.38,0,0,1-22.28-3.27,124.65,124.65,0,0,1-41.6-17.11,108.68,108.68,0,0,1-9.16-6.67c-3-2.34-5.64-5-8.43-7.57a117.94,117.94,0,0,1-25-37.45c-1.42-3.49-2.78-7-3.86-10.64a87.1,87.1,0,0,1-2.71-11.06l2,1.06a19.25,19.25,0,0,1-7,1.9,20.17,20.17,0,0,1-7.18-.83,31.38,31.38,0,0,1-12-7.21l-1.27-1.21a16.31,16.31,0,0,1-1.17-1.48c-.69-.94-1.32-1.89-2-2.85-1.25-1.92-2.42-3.88-3.56-5.85-2.26-4-4.36-8-6.22-12.18a105.68,105.68,0,0,1-4.79-12.83,59.51,59.51,0,0,1-2.51-13.52A29.67,29.67,0,0,1,752.48,403a20.47,20.47,0,0,1,1.65-3.1,16.15,16.15,0,0,1,1-1.42,10.4,10.4,0,0,1,1.13-1.34l1.25-1.24a13.07,13.07,0,0,1,1.36-1.1c.47-.35.92-.73,1.4-1l1.45-.92-.11.09a.76.76,0,0,1,.5-.21l-.36.1a34.35,34.35,0,0,1,9.38-4.07,20.6,20.6,0,0,1,10.2,0A20,20,0,0,1,790,394a27.42,27.42,0,0,1,5.61,8.4l-.28.12a26.8,26.8,0,0,0-5.72-8.12,19.08,19.08,0,0,0-8.48-4.87,19.76,19.76,0,0,0-9.72.26,33.51,33.51,0,0,0-8.93,4.17l-.36.1a.58.58,0,0,0,.44-.17l-.11.09-1.4.93c-.45.31-.86.67-1.3,1a11.48,11.48,0,0,0-1.25,1.06l-1.14,1.17a8.92,8.92,0,0,0-1,1.26,13.94,13.94,0,0,0-1,1.33,19.25,19.25,0,0,0-1.47,2.9,27.86,27.86,0,0,0-1.71,12.92,56.79,56.79,0,0,0,2.66,13,104.18,104.18,0,0,0,4.9,12.48c1.87,4.07,4,8,6.23,11.91q1.71,2.89,3.55,5.69c.62.93,1.24,1.86,1.9,2.73a11.91,11.91,0,0,0,.94,1.17l1.19,1.13a28.77,28.77,0,0,0,11.08,6.5,17.28,17.28,0,0,0,6.21.67,16.72,16.72,0,0,0,6-1.68l1.69-.83.34,1.89a84.64,84.64,0,0,0,2.73,10.6c1.09,3.51,2.44,6.94,3.82,10.35a115.88,115.88,0,0,0,10.48,19.39,122.36,122.36,0,0,0,13.93,17c2.7,2.5,5.29,5.11,8.17,7.4a107.23,107.23,0,0,0,8.88,6.53,122.92,122.92,0,0,0,40.54,17,163.14,163.14,0,0,0,21.9,3.37c1.84.11,3.69.33,5.53.35l5.52.17a98.72,98.72,0,0,0,11-.59,83.93,83.93,0,0,0,21.36-5.21,78.65,78.65,0,0,0,19.13-10.8c1.49-1.1,2.83-2.36,4.23-3.55s2.8-2.39,4.09-3.71a95.75,95.75,0,0,0,7.38-8.22c1.15-1.44,2.27-2.91,3.34-4.42s2.07-3.06,3.11-4.59,1.94-3.14,2.91-4.71,1.8-3.23,2.71-4.84c6.93-13.09,11.77-27.24,15.32-41.65,1.73-7.21,3.2-14.52,4.26-21.84a97,97,0,0,0,.26-22.14v-.09l.08.32a1.06,1.06,0,0,1-.09-.39v.08a78.57,78.57,0,0,1-.17-12.74,100.63,100.63,0,0,1,1.57-12.6v0a4,4,0,0,1,.1-.5l0,.06c.42-2.21,1-4.46,1.56-6.65.31-1.13.64-2.16.84-3.25s.38-2.2.51-3.32a126.87,126.87,0,0,0,.72-13.52q0-6.8-.29-13.58c-.26-4.52-.63-9-.93-13.55v0c-.53-6-1.26-12.12-2.19-18.13s-2.09-12-3.57-17.95a96.23,96.23,0,0,0-5.87-17.29,35.73,35.73,0,0,0-4.78-7.73c-1.93-2.29-4.48-4.29-7.5-4.69Z"/><path class="cls-2" d="M1021.5,401.5l.08,0h0a7.44,7.44,0,0,1,1.19-.11,10.1,10.1,0,0,1,4.74,1.05c5.59,2.77,12.42,12.35,8,44.08,0,0-4.66,29.49-20.26,33.65a13.74,13.74,0,0,1-1.74.35"/><path d="M1023.42,393.2c-3.38,13.32-4.11,27-4.59,40.72-.28,7.79-.48,15.6-1.09,23.37s-2.3,15.48-3.7,23.22c-.26,1.42,1.91,2,2.16.6,1.15-6.32,2.71-12.57,3.36-19,.82-8.09,1.1-16.21,1.38-24.33.51-14.77,1-29.62,4.64-44a1.12,1.12,0,0,0-2.16-.6Z"/><path d="M984,578a100,100,0,0,1-18.14,11.1c-60.31,28.34-120.49-23.58-131.18-33.5-.75-.69-1.25-1.18-1.5-1.42L833,554v-.13L834,535l.13.11A96.63,96.63,0,0,0,858.59,551c28,13,58.22,13.68,62.13,13.72h.43c8.62,1.47,18.28-.74,27.2-4.24a134.61,134.61,0,0,0,25.56-13.8C977.12,544.47,979,543,979,543a21.22,21.22,0,0,0-.66,6.24h0c.08,5.77,1.49,12.94,2.88,18.68.31,1.25.61,2.43.9,3.52.41,1.54.78,2.87,1.09,3.94h0c.37,1.24.63,2.1.74,2.44A1.66,1.66,0,0,0,984,578Z"/></g><path class="cls-7" d="M979.5,541.5l0,.16h0l0,.16a44.81,44.81,0,0,0-1.09,7.41h0a54.71,54.71,0,0,0,2.53,19.94c.29.92.59,1.78.88,2.58h0c.51,1.39,1,2.59,1.46,3.61h0c.45,1,.85,1.82,1.16,2.42.39.77.63,1.18.63,1.18-55.22,42.14-114.67,24.63-141.51,10.75A82.54,82.54,0,0,1,833,583.42c-3.14-2.29-4.58-4-4-4.42s1.37-2.39,1.92-5c.45-2.13.84-4.78,1.18-7.69.44-3.78.8-8,1.08-12.11l0-.34c.61-8.86.87-17,.92-18.73,0-.21,0-.32,0-.32"/><path d="M793.5,445.5a21.85,21.85,0,0,1-4.6,3.19,12.45,12.45,0,0,1-5.42,1.49,11.25,11.25,0,0,1-5.51-1.3,17.82,17.82,0,0,1-4.52-3.43,36.14,36.14,0,0,1-6.32-9.33,65.19,65.19,0,0,1-4.1-10.49l0,.07a22.69,22.69,0,0,1-1.66-6.28,20.43,20.43,0,0,1,.21-6.48,18.39,18.39,0,0,1,2.41-6c.3-.45.65-.87,1-1.31l.5-.65.57-.58,1.14-1.15a14.12,14.12,0,0,1,1.3-1,11.54,11.54,0,0,1,6.16-2,16.08,16.08,0,0,1,6.33,1.19,28.31,28.31,0,0,1,5.62,3.06,34.14,34.14,0,0,1,4.89,4.08,33.57,33.57,0,0,0-10.69-6.66,15.72,15.72,0,0,0-6.12-1,10.71,10.71,0,0,0-5.73,2c-.43.28-.8.65-1.2,1L766.68,405l-.54.55-.46.63c-.31.42-.63.82-.92,1.25a17.25,17.25,0,0,0-2.24,5.73,22.22,22.22,0,0,0,1.42,12.19l0,.05v0a64.65,64.65,0,0,0,4,10.36,38.31,38.31,0,0,0,6.05,9.21,17.07,17.07,0,0,0,4.27,3.4,11.12,11.12,0,0,0,5.22,1.39,12.42,12.42,0,0,0,5.33-1.26A23.85,23.85,0,0,0,793.5,445.5Z"/></g></g></svg>